<?xml version="1.0" standalone="no"?>
<!DOCTYPE svg PUBLIC "-//W3C//DTD SVG 20010904//EN"
 "http://www.w3.org/TR/2001/REC-SVG-20010904/DTD/svg10.dtd">
<svg version="1.0" xmlns="http://www.w3.org/2000/svg"
 width="512.000000pt" height="512.000000pt" viewBox="0 0 512.000000 512.000000"
 preserveAspectRatio="xMidYMid meet">
<metadata>
Created by potrace 1.14, written by Peter Selinger 2001-2017
</metadata>
<g transform="translate(0.000000,512.000000) scale(0.100000,-0.100000)"
fill="#000000" stroke="none">
<path d="M3925 4945 c-337 -60 -606 -310 -697 -646 -17 -66 -22 -111 -22 -209
0 -146 6 -187 44 -296 47 -137 108 -234 212 -337 95 -94 264 -198 345 -213 12
-2 34 -9 48 -14 85 -32 322 -34 440 -2 391 103 656 438 659 832 1 144 -7 199
-44 307 -70 205 -223 384 -420 490 -163 88 -376 122 -565 88z m260 -651 c108
-51 161 -190 116 -306 -18 -47 -89 -115 -136 -131 -54 -19 -139 -16 -186 7
-104 49 -160 172 -129 283 17 59 88 137 143 157 51 19 142 14 192 -10z"/>
<path d="M1846 3906 c-61 -23 -87 -46 -142 -127 l-50 -74 -57 -1 c-105 -1
-181 -81 -170 -179 2 -23 21 -84 43 -136 l38 -94 -41 -45 c-44 -48 -168 -188
-200 -224 -10 -12 -46 -52 -80 -90 -162 -181 -235 -301 -278 -461 -32 -115
-31 -335 0 -450 13 -44 24 -86 24 -94 2 -13 -110 -102 -542 -434 -73 -56 -148
-114 -166 -128 l-33 -26 23 -29 24 -29 1 -522 0 -523 319 0 320 0 24 -32 25
-31 134 99 c73 54 135 102 138 106 9 12 101 54 320 148 335 143 289 108 380
289 l78 157 44 12 c51 13 71 19 378 111 277 84 284 86 327 125 45 39 62 75 69
142 5 46 2 63 -21 109 -14 30 -39 64 -56 75 l-29 21 50 75 c28 41 52 74 53 74
2 0 73 -84 158 -186 85 -102 166 -200 181 -218 l27 -31 901 -3 900 -2 0 80 0
80 -80 0 -80 0 0 765 c0 849 2 818 -63 830 -17 3 -146 5 -285 3 l-253 -3 -19
-25 c-18 -22 -20 -43 -20 -197 l0 -173 -209 0 c-115 0 -217 -3 -226 -6 -34
-13 -45 -58 -45 -189 l0 -125 -211 0 c-117 0 -218 -4 -228 -10 -10 -5 -23 -17
-27 -27 -5 -10 -11 -192 -14 -405 l-5 -387 -157 188 -158 188 25 73 c39 116
53 210 50 338 -3 136 -27 237 -80 350 -20 41 -35 78 -33 82 3 7 133 114 265
218 l42 32 265 0 266 0 0 80 0 80 -289 0 -288 0 -37 -25 c-21 -14 -102 -77
-181 -140 l-144 -116 -44 48 c-24 26 -61 68 -83 93 -21 24 -46 51 -54 60 -8 9
-44 49 -80 90 -36 41 -84 95 -106 120 l-42 45 43 110 c34 84 42 118 39 149
-12 93 -77 150 -172 150 l-57 -1 -50 76 c-35 52 -64 84 -96 104 -57 35 -136
44 -193 23z"/>
</g>
</svg>
